<?xml version="1.0" encoding="UTF-8" standalone="no"?>
<!-- Created with Inkscape (http://www.inkscape.org/) -->

<svg
   xmlns:dc="http://purl.org/dc/elements/1.1/"
   xmlns:cc="http://creativecommons.org/ns#"
   xmlns:rdf="http://www.w3.org/1999/02/22-rdf-syntax-ns#"
   xmlns:svg="http://www.w3.org/2000/svg"
   xmlns="http://www.w3.org/2000/svg"
   xmlns:sodipodi="http://sodipodi.sourceforge.net/DTD/sodipodi-0.dtd"
   xmlns:inkscape="http://www.inkscape.org/namespaces/inkscape"
   id="svg3550"
   version="1.1"
   inkscape:version="0.91 r13725"
   xml:space="preserve"
   width="299.35001"
   height="299.35001"
   viewBox="0 0 299.35001 299.35001"
   sodipodi:docname="33.svg"><metadata
     id="metadata3556"><rdf:RDF><cc:Work
         rdf:about=""><dc:format>image/svg+xml</dc:format><dc:type
           rdf:resource="http://purl.org/dc/dcmitype/StillImage" /><dc:title></dc:title></cc:Work></rdf:RDF></metadata><defs
     id="defs3554"><clipPath
       clipPathUnits="userSpaceOnUse"
       id="clipPath3570"><path
         d="m 2326.85,1206.84 c -17.32,269.33 -200.56,487.97 -470.64,610.02 75.13,-101.81 141.36,-235.71 181.52,-313.94 48.07,-93.6 51.04,-197.4 53.99,-273.88 8.02,-208.84 -194.76,-407.368 -413.54,-411.739 31.7,-90.61 88.76,-214.321 190.3,-348.789 40.78,-51.653 75.52,-92.211 75.52,-92.211 0,0 183.27,152.98 288.7,357.898 95.18,185 100.41,375.051 94.15,472.641 z"
         id="path3572"
         inkscape:connector-curvature="0" /></clipPath><radialGradient
       fx="0"
       fy="0"
       cx="0"
       cy="0"
       r="1"
       gradientUnits="userSpaceOnUse"
       gradientTransform="matrix(558.828,0,0,-558.828,2003.42,1096.58)"
       spreadMethod="pad"
       id="radialGradient3574"><stop
         style="stop-opacity:1;stop-color:#bf935b"
         offset="0"
         id="stop3576" /><stop
         style="stop-opacity:1;stop-color:#a47343"
         offset="1"
         id="stop3578" /></radialGradient><clipPath
       clipPathUnits="userSpaceOnUse"
       id="clipPath3592"><path
         d="m 1253.99,1882.09 c 53.01,1.11 98.18,89.51 111.57,134.12 24.18,80.55 7.06,176.93 39.48,253.66 -18.74,-40.07 -113.26,-70.97 -150.08,-95.25 -53.71,-35.45 -126.33,-73.35 -158.16,-131.83 -13.78,-25.31 -26.48,-79.28 -19.83,-101.7"
         id="path3594"
         inkscape:connector-curvature="0" /></clipPath><linearGradient
       x1="0"
       y1="0"
       x2="1"
       y2="0"
       gradientUnits="userSpaceOnUse"
       gradientTransform="matrix(-115.25,-135.052,-135.052,115.25,1373.6,2180.62)"
       spreadMethod="pad"
       id="linearGradient3596"><stop
         style="stop-opacity:1;stop-color:#bf935b"
         offset="0"
         id="stop3598" /><stop
         style="stop-opacity:1;stop-color:#a47343"
         offset="1"
         id="stop3600" /></linearGradient><clipPath
       clipPathUnits="userSpaceOnUse"
       id="clipPath3608"><path
         d="m 748.035,1646.9 c 6.969,155.2 86.258,306.15 239.008,357.24 74.097,24.8 169.677,-11.11 239.187,-37.69 89.19,-34.13 170.84,-120.74 245.19,-180.49 81.13,-65.23 220.57,-148.87 314.13,-189.28 72.2,-31.17 179.28,-71.36 210.86,-150.39 22.96,-57.49 -0.21,-126.41 -46.52,-164.63 -45.9,-37.82 -335.85,-76.05 -377.19,-78.98 -90.52,-6.43 -135,-11.4 -308.94,3.93 -165.22,14.55 -379.475,81.34 -457.506,218.01 -41.684,72.98 -62.137,134.95 -58.219,222.28 z"
         id="path3610"
         inkscape:connector-curvature="0" /></clipPath><radialGradient
       fx="-0.284022"
       fy="-0.45621401"
       cx="0"
       cy="0"
       r="1"
       gradientUnits="userSpaceOnUse"
       gradientTransform="matrix(530.087,0,0,-530.087,1376.46,1604.48)"
       spreadMethod="pad"
       id="radialGradient3612"><stop
         style="stop-opacity:1;stop-color:#bf935b"
         offset="0"
         id="stop3614" /><stop
         style="stop-opacity:1;stop-color:#bf935b"
         offset="0.75686255"
         id="stop3616" /><stop
         style="stop-opacity:1;stop-color:#a47343"
         offset="1"
         id="stop3618" /></radialGradient><clipPath
       clipPathUnits="userSpaceOnUse"
       id="clipPath3632"><path
         d="m 926.012,1875.46 c -2.028,70.52 57.574,131.59 44.613,204.08 -13.977,78.01 -67.676,145.1 -139.387,176.41 -28.558,12.47 -51.55,31.92 -78.265,44.82 -2.86,-40.87 -31.688,-70.55 -43.133,-108.76 -12.867,-42.95 -16.063,-95.1 -9.395,-139.29 6.633,-43.97 25.977,-86.67 58.344,-117.67 22.012,-21.05 50.098,-30.36 73.863,-48.32 17.075,-12.92 32.528,-32.19 44.914,-49.1"
         id="path3634"
         inkscape:connector-curvature="0" /></clipPath><linearGradient
       x1="0"
       y1="0"
       x2="1"
       y2="0"
       gradientUnits="userSpaceOnUse"
       gradientTransform="matrix(-175,515,515,175,908.594,1849.55)"
       spreadMethod="pad"
       id="linearGradient3636"><stop
         style="stop-opacity:1;stop-color:#bf935b"
         offset="0"
         id="stop3638" /><stop
         style="stop-opacity:1;stop-color:#a47343"
         offset="1"
         id="stop3640" /></linearGradient><clipPath
       clipPathUnits="userSpaceOnUse"
       id="clipPath3660"><path
         d="m 1469.87,810.32 c -91.38,12.11 -260,57.711 -332.17,98.879 -237.239,135.321 -256.438,334.051 -256.438,334.051 0,0 -125.926,86.12 -173.164,148.94 -45.418,60.4 -81.383,126.26 -99.446,200.1 -8.039,32.88 -6.914,237.2 31.336,257.35 C 446.152,1747.53 233.375,1540.1 154.082,1299.55 80.7461,1077.06 129.977,824.551 215.004,641.16 c 2.726,-5.871 5.5,-11.691 8.324,-17.461 C 341.453,382.73 556.719,230.988 799.363,132.371 895.156,93.4414 1128.66,64.0313 1304.37,84.0391 1580.98,115.539 1730.78,184.898 1801.61,235.121 1598.35,460.641 1508.83,675.969 1469.87,810.32 Z"
         id="path3662"
         inkscape:connector-curvature="0" /></clipPath><radialGradient
       fx="0"
       fy="0"
       cx="0"
       cy="0"
       r="1"
       gradientUnits="userSpaceOnUse"
       gradientTransform="matrix(864.109,0,0,-864.109,959.99,963.61)"
       spreadMethod="pad"
       id="radialGradient3664"><stop
         style="stop-opacity:1;stop-color:#bf935b"
         offset="0"
         id="stop3666" /><stop
         style="stop-opacity:1;stop-color:#a47343"
         offset="1"
         id="stop3668" /></radialGradient></defs><sodipodi:namedview
     pagecolor="#ffffff"
     bordercolor="#666666"
     borderopacity="1"
     objecttolerance="10"
     gridtolerance="10"
     guidetolerance="10"
     inkscape:pageopacity="0"
     inkscape:pageshadow="2"
     inkscape:window-width="1920"
     inkscape:window-height="1015"
     id="namedview3552"
     showgrid="false"
     inkscape:zoom="0.7883748"
     inkscape:cx="149.675"
     inkscape:cy="149.675"
     inkscape:window-x="0"
     inkscape:window-y="0"
     inkscape:window-maximized="1"
     inkscape:current-layer="g3558" /><g
     id="g3558"
     inkscape:groupmode="layer"
     inkscape:label="ink_ext_XXXXXX"
     transform="matrix(1.25,0,0,-1.25,0,299.35)"><g
       id="g3560"
       transform="scale(0.1,0.1)"><path
         d="m 0,0 2394.78,0 0,2394.78 L 0,2394.78 0,0 Z"
         style="fill:#ebd0a1;fill-opacity:1;fill-rule:nonzero;stroke:none"
         id="path3562"
         inkscape:connector-curvature="0" /><path
         d="M 2394.78,1197.39 C 2394.78,536.09 1858.69,0 1197.38,0 536.086,0 0,536.09 0,1197.39 c 0,661.3 536.086,1197.39 1197.38,1197.39 661.31,0 1197.4,-536.09 1197.4,-1197.39"
         style="fill:#ebd0a1;fill-opacity:1;fill-rule:nonzero;stroke:none"
         id="path3564"
         inkscape:connector-curvature="0" /><g
         id="g3566"><g
           id="g3568"
           clip-path="url(#clipPath3570)"><path
             d="m 2326.85,1206.84 c -17.32,269.33 -200.56,487.97 -470.64,610.02 75.13,-101.81 141.36,-235.71 181.52,-313.94 48.07,-93.6 51.04,-197.4 53.99,-273.88 8.02,-208.84 -194.76,-407.368 -413.54,-411.739 31.7,-90.61 88.76,-214.321 190.3,-348.789 40.78,-51.653 75.52,-92.211 75.52,-92.211 0,0 183.27,152.98 288.7,357.898 95.18,185 100.41,375.051 94.15,472.641"
             style="fill:url(#radialGradient3574);fill-opacity:1;fill-rule:nonzero;stroke:none"
             id="path3580"
             inkscape:connector-curvature="0" /></g></g><path
         d="m 1910.55,886.289 c 0,0 0.26,-1.48 1.02,-4.141 0.67,-2.668 2.04,-6.539 3.74,-11.347 1.7,-4.84 4.19,-10.531 7.13,-16.981 1.3,-3.269 3.34,-6.519 5.12,-10.039 1.82,-3.519 3.65,-7.23 6.02,-10.89 2.27,-3.7 4.5,-7.61 7.04,-11.52 2.63,-3.851 5.36,-7.82 8.16,-11.902 2.64,-4.18 5.99,-8.059 9.2,-12.137 3.36,-3.98 6.25,-8.41 9.88,-12.422 7.31,-7.988 14.36,-16.582 22.61,-24.41 4,-4.031 8.04,-8.07 12.08,-12.148 4.15,-3.973 8.66,-7.614 12.98,-11.442 l 12.86,-11.59 c 4.54,-3.558 9.07,-7.109 13.56,-10.621 4.51,-3.488 8.94,-7.027 13.26,-10.609 4.43,-3.418 9.05,-6.5 13.47,-9.699 9.04,-6.09 17.18,-12.942 25.72,-18.231 8.48,-5.379 16.38,-10.699 23.69,-15.648 7.24,-5.051 14.2,-9.141 20.32,-12.922 6.09,-3.828 11.41,-7.18 15.79,-9.93 8.73,-5.629 13.66,-9.031 13.66,-9.031 0,0 -5.63,1.859 -15.4,5.461 -4.86,1.851 -10.78,4.109 -17.56,6.699 -6.76,2.652 -14.48,5.512 -22.38,9.68 -8.04,3.902 -16.76,8.172 -25.87,12.929 -9.23,4.524 -18.28,10.551 -27.86,16.411 -4.74,3.019 -9.68,5.921 -14.46,9.16 -4.73,3.363 -9.46,6.84 -14.16,10.429 -4.73,3.563 -9.51,7.153 -14.29,10.75 l -13.64,11.84 c -4.44,4.094 -9.05,7.981 -13.31,12.223 -4.16,4.348 -8.31,8.687 -12.43,12.988 -8.57,8.27 -15.22,18.11 -22.43,26.832 -6.65,9.207 -12.77,18.36 -17.85,27.457 -2.47,4.582 -4.88,9.043 -7.22,13.344 -2.09,4.438 -3.85,8.859 -5.68,13.008 -3.71,8.262 -6,16.359 -8.04,23.39 -1.95,7.098 -3.12,13.399 -3.82,18.629 -0.76,5.2 -0.92,9.332 -0.96,12.153 -0.06,2.808 0.05,4.277 0.05,4.277"
         style="fill:#845333;fill-opacity:1;fill-rule:nonzero;stroke:none"
         id="path3582"
         inkscape:connector-curvature="0" /><path
         d="m 2055.12,1054.11 c 0,0 3.75,-2.15 10.3,-5.59 6.61,-3.4 16.03,-8.08 27.39,-13.32 5.73,-2.49 11.94,-5.19 18.51,-8.04 6.58,-2.76 13.58,-5.49 20.83,-8.25 7.15,-3.03 14.89,-5.2 22.49,-8.1 7.64,-2.8 15.62,-4.99 23.48,-7.54 7.94,-2.28 15.89,-4.551 23.73,-6.801 7.95,-1.719 15.67,-4.008 23.23,-5.887 7.63,-1.473 14.97,-3.262 21.97,-4.891 6.99,-1.582 13.7,-2.64 19.86,-4.019 6.19,-1.16 11.84,-2.641 16.92,-3.383 5.07,-0.82 9.49,-1.75 13.15,-2.469 7.32,-1.5 11.53,-2.539 11.53,-2.539 0,0 -4.23,-0.64 -11.69,-1.429 -7.45,-0.692 -18.2,-2.043 -31.05,-1.602 -6.43,0.129 -13.47,-0.109 -20.81,0.66 -7.34,0.668 -15.14,1.32 -23.14,2.36 -7.94,1.441 -16.23,2.64 -24.53,4.429 -8.24,2.133 -16.6,4.281 -24.97,6.442 -8.15,2.89 -16.41,5.418 -24.32,8.558 -7.93,3.102 -15.61,6.449 -22.86,10.101 -7.38,3.34 -14.15,7.34 -20.55,11.1 -6.46,3.65 -12.21,7.73 -17.52,11.41 -10.56,7.51 -18.61,14.75 -23.99,20.02 -5.33,5.38 -7.96,8.78 -7.96,8.78"
         style="fill:#845333;fill-opacity:1;fill-rule:nonzero;stroke:none"
         id="path3584"
         inkscape:connector-curvature="0" /><path
         d="m 2073.36,1363.24 c 0,0 13.63,1 34.08,2.5 5.03,0.4 10.48,0.84 16.23,1.3 5.72,0.52 11.75,1.07 17.99,1.64 12.42,1.4 25.63,2.75 38.72,4.73 6.59,0.75 13.1,1.92 19.53,2.97 6.46,0.98 12.78,2.1 18.88,3.3 12.2,2.39 23.69,4.66 33.46,7.1 4.95,1.12 9.48,2.17 13.5,3.08 3.95,1.16 7.49,1.98 10.41,2.71 5.86,1.39 9.35,2.04 9.35,2.04 0,0 -2.72,-2.15 -7.69,-5.66 -4.94,-3.59 -12.22,-8.42 -21.63,-12.96 -2.33,-1.2 -4.76,-2.44 -7.28,-3.72 -2.61,-1.06 -5.31,-2.16 -8.08,-3.28 -5.56,-2.22 -11.42,-4.74 -17.73,-6.39 -6.28,-1.81 -12.72,-4.03 -19.48,-5.26 -6.69,-1.56 -13.56,-2.82 -20.48,-3.73 -6.89,-1.03 -13.83,-1.66 -20.68,-2.06 -6.83,-0.66 -13.6,-0.26 -20.11,-0.42 -13.03,0.3 -25.16,1.34 -35.44,3.19 -20.6,3.25 -33.55,8.93 -33.55,8.92"
         style="fill:#845333;fill-opacity:1;fill-rule:nonzero;stroke:none"
         id="path3586"
         inkscape:connector-curvature="0" /><g
         id="g3588"><g
           id="g3590"
           clip-path="url(#clipPath3592)"><path
             d="m 1253.99,1882.09 c 53.01,1.11 98.18,89.51 111.57,134.12 24.18,80.55 7.06,176.93 39.48,253.66 -18.74,-40.07 -113.26,-70.97 -150.08,-95.25 -53.71,-35.45 -126.33,-73.35 -158.16,-131.83 -13.78,-25.31 -26.48,-79.28 -19.83,-101.7"
             style="fill:url(#linearGradient3596);fill-opacity:1;fill-rule:nonzero;stroke:none"
             id="path3602"
             inkscape:connector-curvature="0" /></g></g><g
         id="g3604"><g
           id="g3606"
           clip-path="url(#clipPath3608)"><path
             d="m 748.035,1646.9 c 6.969,155.2 86.258,306.15 239.008,357.24 74.097,24.8 169.677,-11.11 239.187,-37.69 89.19,-34.13 170.84,-120.74 245.19,-180.49 81.13,-65.23 220.57,-148.87 314.13,-189.28 72.2,-31.17 179.28,-71.36 210.86,-150.39 22.96,-57.49 -0.21,-126.41 -46.52,-164.63 -45.9,-37.82 -335.85,-76.05 -377.19,-78.98 -90.52,-6.43 -135,-11.4 -308.94,3.93 -165.22,14.55 -379.475,81.34 -457.506,218.01 -41.684,72.98 -62.137,134.95 -58.219,222.28"
             style="fill:url(#radialGradient3612);fill-opacity:1;fill-rule:nonzero;stroke:none"
             id="path3620"
             inkscape:connector-curvature="0" /></g></g><path
         d="m 1935.3,1283.51 c 53.6,44.5 78.72,163.85 4.88,197 -53.79,24.13 -134.79,20.54 -187.11,-6.64 -38.66,-20.06 -92.63,-87.41 -74.58,-135.49 21.4,-57.05 97.51,-10.79 138.71,-23.82 44.19,-13.96 67.82,-72.81 118.1,-31.05"
         style="fill:#f2c9c0;fill-opacity:1;fill-rule:nonzero;stroke:none"
         id="path3622"
         inkscape:connector-curvature="0" /><path
         d="m 1046.95,1781.68 c -51.259,12.18 -115.927,-45.5 -73.212,-94.4 71.832,-82.3 154.612,67.68 78.122,93.03 -1.65,0.56 -3.28,0.99 -4.91,1.37"
         style="fill:#ffffff;fill-opacity:1;fill-rule:nonzero;stroke:none"
         id="path3624"
         inkscape:connector-curvature="0" /><path
         d="m 1029.72,1781.68 c -51.263,12.18 -115.931,-45.5 -73.216,-94.4 71.826,-82.3 154.606,67.68 78.116,93.03 -1.64,0.56 -3.27,0.99 -4.9,1.37"
         style="fill:#231f20;fill-opacity:1;fill-rule:nonzero;stroke:none"
         id="path3626"
         inkscape:connector-curvature="0" /><g
         id="g3628"><g
           id="g3630"
           clip-path="url(#clipPath3632)"><path
             d="m 926.012,1875.46 c -2.028,70.52 57.574,131.59 44.613,204.08 -13.977,78.01 -67.676,145.1 -139.387,176.41 -28.558,12.47 -51.55,31.92 -78.265,44.82 -2.86,-40.87 -31.688,-70.55 -43.133,-108.76 -12.867,-42.95 -16.063,-95.1 -9.395,-139.29 6.633,-43.97 25.977,-86.67 58.344,-117.67 22.012,-21.05 50.098,-30.36 73.863,-48.32 17.075,-12.92 32.528,-32.19 44.914,-49.1"
             style="fill:url(#linearGradient3636);fill-opacity:1;fill-rule:nonzero;stroke:none"
             id="path3642"
             inkscape:connector-curvature="0" /></g></g><path
         d="m 1366.74,1770.2 c -85.33,52.36 -198.82,7.97 -256.79,-65.37 -66.78,-84.49 -12.75,-170.78 73.46,-208.53 82.36,-36.06 194.07,-38.15 264.07,23.92 98.71,87.54 -5.81,230.59 -101.67,261.98 -23.06,7.56 -68.36,-25.78 -34,-37.03 76.17,-24.95 154.22,-127.63 93.56,-203.71 -39.47,-49.52 -129.48,-29.48 -179.31,-11.56 -59.57,21.42 -107.48,75.28 -79.43,140.34 26.96,62.54 113.91,105.47 175.05,67.95 20.2,-12.39 71.97,15.49 45.06,32.01 l 0,0"
         style="fill:#231f20;fill-opacity:1;fill-rule:nonzero;stroke:none"
         id="path3644"
         inkscape:connector-curvature="0" /><path
         d="m 1551.6,1735.02 c -26.47,4.75 -53.1,8.2 -79.31,0.12 -30.46,-9.39 -53.41,-31.74 -76.42,-52.73 -8.84,-8.07 -6.84,-17.53 5.32,-19.87 13.32,-2.56 30.87,1.76 40.99,10.98 13.01,11.87 25.81,25.02 40.89,34.29 5.51,3.4 25.4,-2.3 32.87,-3.64 13.68,-2.45 30.43,1.85 40.98,10.98 9.08,7.85 6.67,17.72 -5.32,19.87 l 0,0"
         style="fill:#231f20;fill-opacity:1;fill-rule:nonzero;stroke:none"
         id="path3646"
         inkscape:connector-curvature="0" /><path
         d="m 1553.7,1711.98 c -4.44,73.84 60.48,191.18 152.38,151.82 41.26,-17.67 51.45,-79.21 54.61,-118 5.07,-62.2 -23.49,-107.6 -72.83,-144.07 -68.11,-50.34 -125.5,59.43 -134.16,110.25 -2.1,12.32 -60.48,-0.71 -57.95,-15.52 16.02,-93.96 89.15,-147.17 181.42,-123.31 86.02,22.26 144.58,101.64 141.48,188.17 -1.45,40.57 -14.4,81.8 -42.7,111.44 -26.97,28.23 -76.11,22.49 -110.5,17.48 -96.19,-14.03 -175.67,-94.65 -169.7,-193.78 0.65,-10.8 58.94,-0.72 57.95,15.52"
         style="fill:#231f20;fill-opacity:1;fill-rule:nonzero;stroke:none"
         id="path3648"
         inkscape:connector-curvature="0" /><path
         d="m 1200.75,1354.67 c 25.12,-35.14 45.68,-49.5 91.29,-52.66 31.68,-2.19 55.57,13.78 88.75,-2.61 24.15,-11.92 41.88,-26.29 68.22,-34.2 105.19,-31.58 224.51,-4.17 327.69,21.88 34.23,8.65 28.48,29.42 -5.59,20.82 -100.69,-25.43 -230.44,-56.64 -323.98,4.6 -26.24,17.17 -50.35,22.9 -81.41,21 -56.02,-3.43 -78.7,-2.9 -110.57,41.68 -8.69,12.16 -64.49,-6.4 -54.4,-20.51 l 0,0"
         style="fill:#845333;fill-opacity:1;fill-rule:nonzero;stroke:none"
         id="path3650"
         inkscape:connector-curvature="0" /><path
         d="m 1776.42,1387.57 c 9.33,6.89 20.74,22.98 21.65,34.85 0.73,9.54 -8.48,15.13 -16.69,11.31 -6.78,-3.16 -12.42,-16.84 -15.6,-23.2 -6.64,-13.23 -11.82,-39.56 10.64,-22.96"
         style="fill:#845333;fill-opacity:1;fill-rule:nonzero;stroke:none"
         id="path3652"
         inkscape:connector-curvature="0" /><path
         d="m 1920.15,1353.36 c 7.86,5.81 17.47,19.36 18.24,29.37 0.61,8.04 -7.15,12.75 -14.06,9.52 -5.72,-2.66 -10.46,-14.17 -13.15,-19.54 -5.59,-11.14 -9.97,-33.33 8.97,-19.35"
         style="fill:#845333;fill-opacity:1;fill-rule:nonzero;stroke:none"
         id="path3654"
         inkscape:connector-curvature="0" /><g
         id="g3656"><g
           id="g3658"
           clip-path="url(#clipPath3660)"><path
             d="m 1469.87,810.32 c -91.38,12.11 -260,57.711 -332.17,98.879 -237.239,135.321 -256.438,334.051 -256.438,334.051 0,0 -125.926,86.12 -173.164,148.94 -45.418,60.4 -81.383,126.26 -99.446,200.1 -8.039,32.88 -6.914,237.2 31.336,257.35 C 446.152,1747.53 233.375,1540.1 154.082,1299.55 80.7461,1077.06 129.977,824.551 215.004,641.16 c 2.726,-5.871 5.5,-11.691 8.324,-17.461 C 341.453,382.73 556.719,230.988 799.363,132.371 895.156,93.4414 1128.66,64.0313 1304.37,84.0391 1580.98,115.539 1730.78,184.898 1801.61,235.121 1598.35,460.641 1508.83,675.969 1469.87,810.32"
             style="fill:url(#radialGradient3664);fill-opacity:1;fill-rule:nonzero;stroke:none"
             id="path3670"
             inkscape:connector-curvature="0" /></g></g><path
         d="m 154.082,1299.55 c 0,0 2.168,-2.29 6.578,-6.18 4.219,-4.06 11.098,-9.3 19.504,-16.23 8.731,-6.58 19.27,-14.59 32.164,-22.63 3.168,-2.08 6.442,-4.22 9.805,-6.42 3.508,-2 7.109,-4.05 10.812,-6.15 7.461,-4.08 14.942,-8.95 23.231,-13.19 16.738,-8.23 34.547,-17.61 54.426,-25.38 19.347,-8.92 40.941,-15.36 62.781,-23.14 10.894,-3.99 22.558,-6.28 34.027,-9.57 5.774,-1.53 11.578,-3.07 17.414,-4.62 5.813,-1.62 11.656,-3.26 17.688,-4.24 11.965,-2.33 24.027,-4.69 36.136,-7.05 l 18.192,-3.51 18.469,-2.17 c 24.617,-2.87 49.109,-7.07 73.601,-7.48 24.418,-0.76 48.399,-3.88 71.735,-2.67 23.3,0.56 45.894,0.04 67.285,0.85 21.383,1.48 41.597,2.9 60.258,4.2 9.351,0.63 18.316,1.24 26.835,1.82 8.485,1.03 16.524,2.01 24.082,2.93 15.141,1.85 28.352,3.46 39.223,4.79 21.785,2.58 34.328,3.79 34.328,3.79 0,0 -12.176,-2.94 -33.648,-7.62 -10.754,-2.31 -23.813,-5.11 -38.793,-8.32 -7.504,-1.61 -15.492,-3.32 -23.91,-5.12 -8.477,-1.43 -17.473,-2.38 -26.825,-3.68 -18.753,-2.38 -39.07,-4.96 -60.558,-7.69 -21.582,-1.83 -44.473,-2.52 -68.129,-3.56 -5.922,-0.24 -11.887,-0.49 -17.898,-0.73 -6.008,-0.26 -12.071,0.26 -18.168,0.36 -12.192,0.45 -24.536,0.91 -36.977,1.37 -24.945,0.21 -50.035,4.2 -75.211,6.97 l -18.844,2.39 -18.597,3.77 c -12.371,2.53 -24.7,5.06 -36.922,7.56 -12.293,2.22 -24,6.56 -35.793,9.78 -11.664,3.7 -23.481,6.38 -34.555,10.78 -22.262,8.43 -43.898,16.22 -63.32,26.24 -19.973,8.75 -37.598,19.56 -54.024,29.04 -8.125,4.9 -15.55,10.22 -22.714,15.05 -3.551,2.46 -7.008,4.85 -10.372,7.19 -3.218,2.54 -6.339,5 -9.367,7.4 -12.289,9.29 -22.218,18.33 -30.394,25.72 -7.957,7.66 -13.946,13.91 -17.758,18.43 -3.926,4.4 -5.797,6.92 -5.797,6.92"
         style="fill:#845333;fill-opacity:1;fill-rule:nonzero;stroke:none"
         id="path3672"
         inkscape:connector-curvature="0" /><path
         d="m 296.305,501.91 c 0,0.012 14.347,0.61 39.093,4.07 24.762,3.301 59.836,10.122 100.911,21.602 20.562,5.637 42.531,12.789 65.484,21.008 23.012,8.101 46.625,18.332 70.945,29 24.082,11.242 48.645,23.519 72.875,37.32 24.453,13.41 48.317,28.738 71.809,44.551 11.726,7.937 23.152,16.328 34.695,24.437 11.153,8.653 22.262,17.274 33.281,25.832 10.711,8.95 21.332,17.84 31.825,26.622 10.183,9.136 20.254,18.168 30.148,27.058 9.57,9.25 18.984,18.352 28.195,27.262 9.067,9.058 17.657,18.207 26.18,26.969 8.668,8.629 16.234,17.82 24.016,26.308 7.672,8.571 15.324,16.672 21.992,25.02 13.586,16.492 26.484,31.301 36.965,45.191 10.691,13.738 20.251,25.578 27.341,35.879 14.67,20.27 23.31,31.75 23.31,31.75 0,0 -7.14,-12.41 -20.09,-33.93 -6.3,-10.879 -14.9,-23.461 -24.538,-38.078 -9.387,-14.801 -21.133,-30.691 -34.031,-48 -6.262,-8.812 -13.496,-17.41 -20.758,-26.511 -7.383,-9 -14.762,-18.54 -23.14,-27.649 -8.266,-9.23 -16.59,-18.859 -25.415,-28.422 -9.097,-9.32 -18.39,-18.828 -27.835,-28.508 C 849.711,741.41 839.703,731.969 829.57,722.41 819.258,713.039 808.418,704 797.605,694.762 786.566,685.801 775.176,677.07 763.883,668.141 752.168,659.77 740.598,651.09 728.66,642.93 704.543,626.98 680.055,611.539 654.973,598.039 630.176,584.031 604.59,572.48 579.824,561.52 c -25.004,-10.461 -49.531,-19.7 -73.258,-27.008 -23.64,-7.563 -46.347,-13.524 -67.503,-18.032 -42.247,-9.441 -78.235,-12.742 -103.286,-14.359 -12.554,-0.82 -22.453,-0.633 -29.172,-0.59 -6.718,0.25 -10.3,0.379 -10.3,0.379"
         style="fill:#845333;fill-opacity:1;fill-rule:nonzero;stroke:none"
         id="path3674"
         inkscape:connector-curvature="0" /><path
         d="m 1205.07,84.7617 c 0,0 2.92,12.1485 8.02,33.4183 5.28,21.191 11.56,51.781 19.19,88.351 3.48,18.367 7.69,38.16 11.36,59.239 1.91,10.519 3.86,21.32 5.86,32.371 1.79,11.078 3.62,22.398 5.47,33.918 4.16,22.941 6.69,46.91 10.37,71.089 3.37,24.223 5.63,48.961 8.48,73.633 1.82,24.739 4.47,49.449 5.66,73.84 0.5,24.391 2.99,48.399 2.56,71.649 0.01,11.621 0.02,23.058 0.03,34.25 0.05,5.601 0.09,11.14 0.14,16.609 -0.12,5.473 -0.51,10.851 -0.75,16.172 -0.52,10.648 -1.03,21.008 -1.52,31.027 -0.57,10.012 -0.41,19.793 -1.74,28.992 -2.11,18.481 -3.75,35.5 -5.19,50.629 -0.49,7.602 -2.01,14.52 -3.12,20.992 -1.15,6.469 -2.21,12.399 -3.17,17.77 -3.76,21.488 -5.66,33.918 -5.66,33.918 0,0 3.61,-11.938 9.46,-33.07 1.44,-5.289 3.04,-11.149 4.79,-17.528 1.69,-6.402 3.86,-13.269 5.04,-20.812 2.86,-15.008 6.08,-31.981 9.26,-50.578 3.11,-18.602 4.49,-38.981 6.76,-60.481 0.49,-5.379 1.13,-10.84 1.51,-16.371 0.22,-5.527 0.44,-11.129 0.66,-16.801 0.37,-11.34 0.74,-22.918 1.12,-34.699 0.57,-11.789 0.34,-23.758 0.02,-35.879 -0.3,-12.121 -0.61,-24.39 -0.91,-36.762 -0.99,-24.718 -3.38,-49.726 -5.05,-74.808 -3.11,-24.91 -5.64,-49.899 -9.28,-74.34 -3.79,-24.41 -7.46,-48.441 -12.16,-71.48 -2.27,-11.532 -4.49,-22.879 -6.66,-33.981 -2.53,-11.019 -5,-21.809 -7.42,-32.309 -4.54,-21.05 -10.08,-40.671 -14.8,-58.839 -9.87,-36.262 -19.65,-66.02 -26.59,-86.789 -3.39,-10.403 -6.53,-18.4301 -8.55,-23.9418 -2.08,-5.4805 -3.19,-8.3985 -3.19,-8.3985"
         style="fill:#845333;fill-opacity:1;fill-rule:nonzero;stroke:none"
         id="path3676"
         inkscape:connector-curvature="0" /></g></g></svg>